Coordinates
version=1
nRows=14
nColumns=40
inDegrees=yes

Units are S.I. units (second, meters, Newtons, ...)
If the header above contains a line with 'inDegrees', this indicates whether rotational values are in degrees (yes) or radians (no).

endheader
time	pelvis_tilt	pelvis_list	pelvis_rotation	pelvis_tx	pelvis_ty	pelvis_tz	hip_flexion_r	hip_adduction_r	hip_rotation_r	knee_angle_r	knee_angle_r_beta	ankle_angle_r	subtalar_angle_r	mtp_angle_r	hip_flexion_l	hip_adduction_l	hip_rotation_l	knee_angle_l	knee_angle_l_beta	ankle_angle_l	subtalar_angle_l	mtp_angle_l	lumbar_extension	lumbar_bending	lumbar_rotation	arm_flex_r	arm_add_r	arm_rot_r	elbow_flex_r	pro_sup_r	wrist_flex_r	wrist_dev_r	arm_flex_l	arm_add_l	arm_rot_l	elbow_flex_l	pro_sup_l	wrist_flex_l	wrist_dev_l
      7.70000000	      8.86938673	     -3.79976415	   -170.32438196	      0.31177142	      0.79679927	     -0.60027531	     52.57840158	    -21.01869765	     -3.24176511	     59.12029813	      1.03184386	     18.34476731	      0.00000000	      0.00000000	     52.99639797	     -3.63134013	     -4.29065217	     57.46815186	      1.00300846	     14.52508042	      0.00000000	      0.00000000	    -62.57258095	      6.58766996	     -9.69902329	     56.83697742	     -0.90621989	     11.36474415	      9.28704188	     25.21610422	      0.00000000	      0.00000000	     66.30857348	    -13.11429432	     78.08453921	      5.81235222	     79.18373598	      0.00000000	      0.00000000
      7.70500000	      8.91459548	     -3.66352707	   -170.24566180	      0.31143307	      0.79840808	     -0.59990116	     52.26181503	    -21.02164865	     -3.62232684	     58.64589811	      1.02356401	     18.14144815	      0.00000000	      0.00000000	     52.82661604	     -3.60656550	     -4.14403523	     57.06126018	      0.99590687	     14.35654395	      0.00000000	      0.00000000	    -62.51501748	      6.73534806	     -9.51271900	     56.62070853	     -1.07123737	     11.20790064	      9.69610396	     24.60601588	      0.00000000	      0.00000000	     66.35272422	    -13.05383764	     79.40700332	      5.90193089	     79.97581432	      0.00000000	      0.00000000
      7.71000000	      8.95187078	     -3.68555201	   -170.44115883	      0.31102352	      0.80007577	     -0.60007926	     52.06883144	    -20.87693276	     -3.64021845	     58.19184422	      1.01563928	     17.90767218	      0.00000000	      0.00000000	     52.55170759	     -3.74683008	     -4.38337792	     56.62469952	      0.98828744	     14.18658690	      0.00000000	      0.00000000	    -62.48974226	      6.55294974	     -9.50643080	     56.59615804	     -1.00050015	     11.14866348	      9.44956172	     25.32447252	      0.00000000	      0.00000000	     66.18837814	    -13.07006887	     78.51702639	      5.83933153	     79.61716228	      0.00000000	      0.00000000
      7.71500000	      8.99587658	     -3.72479823	   -170.53943426	      0.31054801	      0.80169407	     -0.60000680	     51.86553156	    -20.83949371	     -3.68907118	     57.76879836	      1.00825574	     17.66723971	      0.00000000	      0.00000000	     52.27689810	     -3.75765674	     -4.52073297	     56.18017348	      0.98052900	     14.07433710	      0.00000000	      0.00000000	    -62.44296610	      6.43922579	     -9.46857982	     56.56410197	     -1.04622627	     11.05390448	      9.32301954	     26.21506654	      0.00000000	      0.00000000	     66.15870171	    -12.98048278	     78.07303936	      5.91236908	     79.34630444	      0.00000000	      0.00000000
      7.72000000	      9.06381555	     -3.67905173	   -170.59781697	      0.31011078	      0.80326344	     -0.59993042	     51.65110790	    -20.77688384	     -3.86197293	     57.32687725	      1.00054276	     17.44343420	      0.00000000	      0.00000000	     52.08725927	     -3.82144597	     -4.61538812	     55.77791154	      0.97350821	     13.87529948	      0.00000000	      0.00000000	    -62.37042435	      6.40705174	     -9.38906999	     56.51937003	     -1.09117407	     10.94246227	      9.14029597	     26.75086388	      0.00000000	      0.00000000	     66.00624103	    -13.00290903	     78.11849128	      5.92023653	     79.56604140	      0.00000000	      0.00000000
      7.72500000	      9.18655695	     -3.64691998	   -170.60788664	      0.30965261	      0.80476038	     -0.59978581	     51.48948351	    -20.76182179	     -4.03668372	     56.89019462	      0.99292121	     17.21966445	      0.00000000	      0.00000000	     51.93472597	     -3.80936851	     -4.64335425	     55.33563820	      0.96578908	     13.70279633	      0.00000000	      0.00000000	    -62.20754675	      6.40732219	     -9.43777995	     56.42047661	     -1.02760672	     10.84002795	      9.10736208	     27.19545158	      0.00000000	      0.00000000	     65.94011004	    -13.03145487	     78.12113720	      5.97328239	     79.40001079	      0.00000000	      0.00000000
      7.73000000	      9.14135932	     -3.45563585	   -170.48160059	      0.30933478	      0.80660691	     -0.59907686	     51.00959732	    -20.78599769	     -4.56716752	     56.35798278	      0.98363236	     16.98554451	      0.00000000	      0.00000000	     51.67927373	     -3.77214962	     -4.41103583	     54.91616957	      0.95846797	     13.52760857	      0.00000000	      0.00000000	    -62.23742180	      6.64622091	     -9.22193040	     56.31450344	     -1.20743645	     10.57642023	      9.39016594	     26.68648448	      0.00000000	      0.00000000	     65.92807425	    -12.90978771	     79.76483649	      5.85663076	     79.18140533	      0.00000000	      0.00000000
      7.73500000	      9.30656376	     -3.41022847	   -170.57214510	      0.30886726	      0.80812194	     -0.59911954	     50.90237112	    -20.67299723	     -4.67279817	     55.88131681	      0.97531297	     16.70446825	      0.00000000	      0.00000000	     51.55011702	     -3.85123702	     -4.52546470	     54.45092738	      0.95034796	     13.35067560	      0.00000000	      0.00000000	    -62.04149325	      6.56991775	     -9.07078613	     56.09034422	     -1.31925174	     10.54478295	      9.63023191	     26.11751601	      0.00000000	      0.00000000	     65.84867540	    -12.70366444	     79.37490601	      5.84114277	     79.70063663	      0.00000000	      0.00000000
      7.74000000	      9.31650440	     -3.44216250	   -170.67176019	      0.30841606	      0.80990134	     -0.59901693	     50.61918334	    -20.62782375	     -4.76507432	     55.39154460	      0.96676483	     16.47400174	      0.00000000	      0.00000000	     51.23431837	     -3.88961829	     -4.70915445	     53.97869405	      0.94210594	     13.14446267	      0.00000000	      0.00000000	    -62.02840657	      6.46691317	     -9.10824157	     55.98878216	     -1.26421165	     10.46973593	      9.87442792	     25.47336621	      0.00000000	      0.00000000	     65.72850840	    -12.76177259	     79.69295891	      5.75105832	     79.69624101	      0.00000000	      0.00000000
      7.74500000	      9.34527556	     -3.40546052	   -170.68431636	      0.30802247	      0.81171380	     -0.59878354	     50.30307184	    -20.60705303	     -4.99595795	     54.86884193	      0.95764195	     16.22160232	      0.00000000	      0.00000000	     50.95624826	     -3.89081635	     -4.76719835	     53.48661815	      0.93351759	     12.94323997	      0.00000000	      0.00000000	    -61.98687421	      6.48218690	     -9.08881668	     55.90921939	     -1.31253860	     10.77501399	      9.89460943	     25.11155740	      0.00000000	      0.00000000	     65.63117859	    -12.76551222	     79.74282313	      5.77262458	     79.55779025	      0.00000000	      0.00000000
      7.75000000	      9.37364411	     -3.39786921	   -170.71999233	      0.30753165	      0.81364263	     -0.59864594	     49.96806254	    -20.60400849	     -5.24044393	     54.30656409	      0.94782835	     15.94596727	      0.00000000	      0.00000000	     50.63675396	     -3.91011793	     -4.90143176	     52.94722656	      0.92410343	     12.71564768	      0.00000000	      0.00000000	    -61.95588944	      6.45926312	     -9.08541273	     55.99853541	     -1.28004118	     10.75433758	      9.45422719	     26.06893162	      0.00000000	      0.00000000	     65.51773477	    -12.69739935	     78.29871283	      5.81936571	     78.91330548	      0.00000000	      0.00000000
      7.75500000	      9.51670186	     -3.33642948	   -170.70253675	      0.30722318	      0.81528171	     -0.59850313	     49.78440652	    -20.55416488	     -5.42089457	     53.79963619	      0.93898079	     15.70390947	      0.00000000	      0.00000000	     50.48393745	     -3.90456031	     -4.93888941	     52.41994260	      0.91490059	     12.48703389	      0.00000000	      0.00000000	    -61.77993941	      6.47789871	     -9.05566223	     55.81341143	     -1.35626294	     11.25887341	      9.53217837	     25.97828793	      0.00000000	      0.00000000	     65.44878052	    -12.72132970	     79.34330079	      5.90753070	     79.39264666	      0.00000000	      0.00000000
      7.76000000	      9.64841832	     -3.21228953	   -170.44866197	      0.30676668	      0.81705590	     -0.59786691	     49.44451800	    -20.68578536	     -5.92125536	     53.22296458	      0.92891597	     15.42808394	      0.00000000	      0.00000000	     50.33421801	     -3.73468775	     -4.74146614	     51.86320868	      0.90518375	     12.24624931	      0.00000000	      0.00000000	    -61.60825763	      6.74980402	     -9.02955785	     55.72447745	     -1.48399151	     11.31772328	      9.56950532	     25.80159496	      0.00000000	      0.00000000	     65.33667927	    -12.61845347	     79.35491659	      5.87328537	     79.82328462	      0.00000000	      0.00000000
      7.76500000	      9.79733502	     -3.22811582	   -170.47443295	      0.30635787	      0.81883883	     -0.59779250	     49.26360258	    -20.67365207	     -6.05820838	     52.67247804	      0.91930817	     15.14940082	      0.00000000	      0.00000000	     50.13173773	     -3.72036468	     -4.90127272	     51.29388608	      0.89524720	     11.97083141	      0.00000000	      0.00000000	    -61.44253142	      6.68048965	     -9.24382045	     55.77934884	     -1.22133992	     11.64765358	      9.15730951	     26.12057846	      0.00000000	      0.00000000	     65.10679279	    -12.81867212	     79.04320027	      5.79215912	     79.35150803	      0.00000000	      0.00000000
